# xmcd
#
# Track frame offsets:
#	150
#	24100
#	43233
#	60321
#	78136
#	96544
#	112131
#	126707
#	146760
#	166560
#	183040
#
# Disc length: 2730 seconds
#
# Revision: 1
# Processed by: cddbd v1.5.2PL0 Copyright (c) Steve Scherf et al.
# Submitted via: audiograbber 1.83.01
#
DISCID=8e0aa80b
DTITLE=Fiona Boyes - Voodoo In The Shadows [Reference Recordings]
DYEAR=2018
DGENRE=Blues
TTITLE0=Call Their Name
TTITLE1=Party At Red's
TTITLE2=What You Put On Me
TTITLE3=Dark And Dangerous Love
TTITLE4=Little Things
TTITLE5=New Orleans
TTITLE6=Don't Leave Your Feet At Home
TTITLE7=I Ain't Fooling
TTITLE8=With A Little Respect
TTITLE9=Tell Your Story Walking
TTITLE10=Ember
EXTD=
EXTT0=
EXTT1=
EXTT2=
EXTT3=
EXTT4=
EXTT5=
EXTT6=
EXTT7=
EXTT8=
EXTT9=
EXTT10=
PLAYORDER=
